<svg width="17" height="17" viewBox="0 0 17 17" fill="none" xmlns="http://www.w3.org/2000/svg">
<path fill-rule="evenodd" clip-rule="evenodd" d="M11.75 0.607178C14.1498 0.607178 16.0953 2.55261 16.0953 4.95242V11.9048C16.0953 14.3046 14.1498 16.25 11.75 16.25H4.79763C2.39783 16.25 0.452393 14.3046 0.452393 11.9048L0.452393 4.95242C0.452393 2.55261 2.39783 0.607178 4.79763 0.607178L11.75 0.607178ZM11.75 2.34527L4.79763 2.34527C3.35775 2.34527 2.19049 3.51253 2.19049 4.95242L2.19049 11.9048C2.19049 13.3447 3.35775 14.5119 4.79763 14.5119H11.75C13.1899 14.5119 14.3572 13.3447 14.3572 11.9048V4.95242C14.3572 3.51253 13.1899 2.34527 11.75 2.34527ZM8.27382 4.95242C10.1936 4.95242 11.75 6.50876 11.75 8.42861C11.75 10.3484 10.1936 11.9048 8.27382 11.9048C6.35397 11.9048 4.79763 10.3484 4.79763 8.42861C4.79763 6.50876 6.35397 4.95242 8.27382 4.95242ZM8.27382 6.69051C7.31387 6.69051 6.53573 7.46866 6.53573 8.42861C6.53573 9.38856 7.31387 10.1667 8.27382 10.1667C9.23377 10.1667 10.0119 9.38856 10.0119 8.42861C10.0119 7.46866 9.23377 6.69051 8.27382 6.69051ZM12.1845 3.64884C12.6645 3.64884 13.0536 4.03793 13.0536 4.51789C13.0536 4.99785 12.6645 5.38694 12.1845 5.38694C11.7046 5.38694 11.3155 4.99785 11.3155 4.51789C11.3155 4.03793 11.7046 3.64884 12.1845 3.64884Z" fill="#000"/>
</svg>
