<svg width="22" height="22" viewBox="0 0 22 22" fill="none" xmlns="http://www.w3.org/2000/svg">
<path d="M18.2894 7.25984C18.3006 7.42146 18.3006 7.58309 18.3006 7.7462C18.3006 12.7163 14.517 18.4483 7.59853 18.4483V18.4453C5.55479 18.4483 3.5535 17.8629 1.83301 16.7591C2.13018 16.7948 2.42885 16.8127 2.72826 16.8134C4.42194 16.8149 6.06721 16.2466 7.39967 15.2002C5.79015 15.1697 4.37875 14.1202 3.88569 12.5882C4.4495 12.6969 5.03045 12.6746 5.58384 12.5234C3.82908 12.1688 2.56664 10.6271 2.56664 8.83659C2.56664 8.8202 2.56664 8.80456 2.56664 8.78892C3.08949 9.08014 3.67491 9.24176 4.27373 9.25964C2.62101 8.15509 2.11156 5.95643 3.1096 4.23743C5.01928 6.58728 7.83687 8.01582 10.8615 8.16701C10.5584 6.86063 10.9725 5.49168 11.9497 4.57334C13.4646 3.14927 15.8472 3.22226 17.2713 4.73645C18.1137 4.57036 18.921 4.26126 19.6599 3.82332C19.3791 4.69399 18.7914 5.43358 18.0064 5.90355C18.752 5.81567 19.4804 5.61606 20.1663 5.31144C19.6614 6.06816 19.0253 6.72731 18.2894 7.25984Z" fill="#000"/>
</svg>
