<svg width="19" height="15" viewBox="0 0 19 15" fill="none" xmlns="http://www.w3.org/2000/svg">
<path fill-rule="evenodd" clip-rule="evenodd" d="M9.57146 0.476074C10.3149 0.476074 11.0763 0.495557 11.815 0.526276L12.688 0.568005L13.5234 0.617354L14.3057 0.671157L15.0191 0.726247C16.6164 0.855865 17.9001 2.092 18.0562 3.70119L18.0908 4.07013L18.156 4.86092C18.2169 5.68063 18.2619 6.57447 18.2619 7.42846C18.2619 8.28244 18.2169 9.17628 18.156 9.996L18.0908 10.7868C18.0794 10.913 18.0678 11.0362 18.0562 11.1557C17.9001 12.7649 16.6164 14.0011 15.0191 14.1306L14.3057 14.1857L13.5234 14.2395L12.688 14.2889L11.815 14.3306C11.0763 14.3613 10.3149 14.3808 9.57146 14.3808C8.82807 14.3808 8.0666 14.3613 7.32787 14.3306L6.45493 14.2889L5.61949 14.2395L4.83723 14.1857L4.12383 14.1306C2.52653 14.0011 1.24285 12.7649 1.08667 11.1557L1.05212 10.7868L0.986938 9.996C0.925994 9.17628 0.880981 8.28244 0.880981 7.42846C0.880981 6.57447 0.925994 5.68063 0.986938 4.86092L1.05212 4.07013C1.0635 3.94386 1.07507 3.8207 1.08667 3.70119C1.24285 2.092 2.52653 0.855865 4.12383 0.726247L4.83723 0.671157L5.61949 0.617354L6.45493 0.568005L7.32787 0.526276C8.0666 0.495557 8.82806 0.476074 9.57146 0.476074ZM7.83336 5.32113L7.83336 9.53581C7.83336 9.93722 8.26789 10.188 8.61551 9.98737L12.2655 7.88001C12.6131 7.67935 12.6131 7.17756 12.2655 6.9769L8.61551 4.86955C8.26789 4.66886 7.83336 4.91973 7.83336 5.32113Z" fill="#000"/>
</svg>
